<svg width="253" height="83" viewBox="0 0 253 83" fill="none" xmlns="http://www.w3.org/2000/svg">
<g clip-path="url(#clip0_33_4890)">
<g clip-path="url(#clip1_33_4890)">
<path fill-rule="evenodd" clip-rule="evenodd" d="M135.114 30.6848V52.3997H144.076V30.3403C144.076 21.1428 154.187 14.967 162.35 18.6148C163.208 18.9979 165.79 20.3497 165.79 21.379V52.3997H174.751V21.379C174.751 19.4611 184.315 14.1091 192.073 20.9463C193.734 22.4101 196.121 26.0347 196.121 28.9622V52.4003H205.083V28.2731C205.083 23.8622 201.657 17.5096 198.455 14.5643C193.885 10.3597 188.822 8.62664 182.334 8.62664C177.107 8.62664 173.696 10.9502 170.27 12.7628C170.004 12.7934 154.9 1.79365 141.4 15.2583C138.03 18.6197 135.114 24.0703 135.114 30.6861V30.6848Z" fill="#90E600"/>
<path fill-rule="evenodd" clip-rule="evenodd" d="M83.0677 31.0293C83.0677 23.0661 88.547 17.5867 96.5103 17.5867C103.147 17.5867 108.919 23.1884 108.919 31.0293C108.919 37.7007 103.273 43.4377 95.4761 43.4377C89.0054 43.4377 83.0677 37.5404 83.0677 31.0293ZM74.1057 29.9951C74.1057 48.1148 93.2137 58.7792 108.918 48.2629V52.3991H117.879V29.3055C117.879 18.2745 107.78 8.62476 95.4755 8.62476C84.0712 8.62476 74.1051 18.5609 74.1051 29.9945L74.1057 29.9951Z" fill="#90E600"/>
<path fill-rule="evenodd" clip-rule="evenodd" d="M230.589 17.5873C236.486 17.5873 240.801 20.2695 243.099 25.069C244.734 28.4836 244.603 32.0672 243.303 35.4714C238.831 47.1816 219.498 46.2025 218.264 30.9412C218.16 29.6506 218.827 26.8418 219.203 25.848C219.782 24.3175 220.642 22.951 221.707 21.803C223.643 19.7175 226.722 17.5873 230.589 17.5873H230.589ZM230.245 52.3997C237.654 52.3997 242.46 50.3484 247.051 45.7686C255.295 37.5459 255.304 23.5067 247.225 15.4284C238.269 6.47254 224.579 6.36117 215.845 14.907C214.428 16.2924 212.252 19.1882 211.426 21.1733C208.831 27.4096 208.514 32.5072 211.037 38.8628C213.984 46.2833 221.926 52.4003 230.244 52.4003L230.245 52.3997Z" fill="#90E600"/>
<path fill-rule="evenodd" clip-rule="evenodd" d="M22.4042 43.4384C14.4679 43.4384 8.96225 37.4187 8.96225 32.0641C8.96225 27.9023 9.11523 24.6155 12.8273 21.1079C23.0235 11.4734 39.3845 23.0979 33.7828 35.5149C32.8716 37.5343 32.6317 37.8819 31.1098 39.3904C29.5971 40.8902 29.5879 41.0879 27.5844 42.0688C26.1848 42.7536 24.5093 43.4384 22.4049 43.4384H22.4042ZM0.000305176 28.9616C0.000305176 34.3241 0.644684 39.1535 4.08382 43.491C5.93067 45.8207 6.97832 46.9173 9.36858 48.5463C15.8827 52.9853 24.1269 53.683 31.3081 50.2726C46.9781 42.8307 48.8831 19.6007 31.2566 10.8033C23.0786 6.72165 10.8538 8.84694 5.51332 15.8617C4.99745 16.5391 4.80897 16.6743 4.23803 17.3432C2.21738 19.7096 0.000917121 25.3028 0.000917121 28.961L0.000305176 28.9616Z" fill="#90E600"/>
<path fill-rule="evenodd" clip-rule="evenodd" d="M47.9108 29.9958V52.3997H56.8721V29.9958C56.8721 23.3733 62.5179 17.5874 70.3147 17.5874C72.0471 17.5874 71.858 17.8976 73.4167 17.9319C74.1883 14.6213 78.3373 12.5743 78.9315 10.3493C76.7138 10.1645 76.1 8.62604 69.2805 8.62604C57.8983 8.62604 47.9108 18.5946 47.9108 29.9958Z" fill="#90E600"/>
<path fill-rule="evenodd" clip-rule="evenodd" d="M126.152 17.5874C135.814 17.5874 138.779 5.84474 130.972 1.04831C128.997 -0.165177 127.743 0.00861603 125.463 0.00861603C119.442 0.00861603 114.475 9.25695 120.189 14.934C121.426 16.1628 123.851 17.5874 126.152 17.5874Z" fill="#90E600"/>
<path fill-rule="evenodd" clip-rule="evenodd" d="M126.841 52.0545C126.887 50.0094 127.911 46.175 128.364 43.9261L133.046 19.6545C131.986 19.9378 131.337 20.5963 130.25 20.9959C127.717 21.9279 125.489 21.9132 122.993 21.0907C121.389 20.5626 121.581 20.0351 119.948 19.6545C120.137 21.9279 121.033 25.2507 121.528 27.7254C122.123 30.7019 122.598 33.0787 123.194 36.0552L125.607 48.1191C126.25 51.352 125.745 51.2504 126.842 52.0539L126.841 52.0545Z" fill="#90E600"/>
</g>
</g>
<path d="M63.5938 67.6406C64.2969 67.6406 64.9922 67.7839 65.6797 68.0703C66.3724 68.3516 66.8984 68.7135 67.2578 69.1562L66.3438 70.3594C65.9948 69.9792 65.5625 69.6797 65.0469 69.4609C64.5365 69.237 64.013 69.125 63.4766 69.125C62.8828 69.125 62.3958 69.2656 62.0156 69.5469C61.6354 69.8281 61.4453 70.1901 61.4453 70.6328C61.4453 70.9193 61.5156 71.1719 61.6562 71.3906C61.7969 71.6042 61.9844 71.7812 62.2188 71.9219C62.4583 72.0573 62.7292 72.1797 63.0312 72.2891C63.3385 72.3932 63.6615 72.4948 64 72.5938C64.3438 72.6875 64.6849 72.7891 65.0234 72.8984C65.362 73.0078 65.6823 73.1432 65.9844 73.3047C66.2917 73.4661 66.5625 73.6562 66.7969 73.875C67.0365 74.0885 67.2266 74.3646 67.3672 74.7031C67.5078 75.0365 67.5781 75.4193 67.5781 75.8516C67.5781 76.2943 67.4844 76.7161 67.2969 77.1172C67.1146 77.5182 66.8568 77.8698 66.5234 78.1719C66.1953 78.474 65.7839 78.7135 65.2891 78.8906C64.7943 79.0677 64.2552 79.1562 63.6719 79.1562C62.849 79.1562 62.0547 78.9922 61.2891 78.6641C60.5234 78.3359 59.888 77.9089 59.3828 77.3828L60.3594 76.2344C61.3802 77.1927 62.4844 77.6719 63.6719 77.6719C64.3542 77.6719 64.9115 77.5052 65.3438 77.1719C65.776 76.8333 65.9922 76.3984 65.9922 75.8672C65.9922 75.5911 65.9219 75.349 65.7812 75.1406C65.6458 74.9323 65.4583 74.7656 65.2188 74.6406C64.9844 74.5104 64.7135 74.3958 64.4062 74.2969C64.1042 74.1927 63.7839 74.0964 63.4453 74.0078C63.112 73.9141 62.776 73.8151 62.4375 73.7109C62.1042 73.6016 61.7839 73.4661 61.4766 73.3047C61.1745 73.1432 60.9036 72.9557 60.6641 72.7422C60.4297 72.5286 60.2422 72.2526 60.1016 71.9141C59.9661 71.5703 59.8984 71.1797 59.8984 70.7422C59.8984 69.8516 60.2474 69.112 60.9453 68.5234C61.6432 67.9349 62.526 67.6406 63.5938 67.6406ZM78.2969 71.0312C79.2604 71.0312 80.0312 71.3255 80.6094 71.9141C81.1927 72.4974 81.4844 73.2865 81.4844 74.2812V79H80.0078V74.5859C80.0078 73.9193 79.8359 73.3958 79.4922 73.0156C79.1484 72.6302 78.6771 72.4375 78.0781 72.4375C77.5365 72.4375 77.0703 72.6198 76.6797 72.9844C76.2891 73.3438 76.0938 73.8776 76.0938 74.5859V79H74.6172V74.5859C74.6172 73.9193 74.4427 73.3958 74.0938 73.0156C73.75 72.6302 73.2734 72.4375 72.6641 72.4375C72.1328 72.4375 71.6745 72.6172 71.2891 72.9766C70.9089 73.3307 70.7188 73.8672 70.7188 74.5859V79H69.2266V71.1953H70.7188V72.4062C70.9792 71.9271 71.3281 71.5781 71.7656 71.3594C72.2083 71.1406 72.6745 71.0312 73.1641 71.0312C74.4193 71.0312 75.2734 71.5443 75.7266 72.5703C75.9453 72.0964 76.2891 71.7214 76.7578 71.4453C77.2266 71.1693 77.7396 71.0312 78.2969 71.0312ZM89.8906 71.1953H91.3672V79H89.8906V77.3984C89.599 77.9661 89.2005 78.401 88.6953 78.7031C88.1901 79.0052 87.5964 79.1562 86.9141 79.1562C85.862 79.1562 84.9661 78.763 84.2266 77.9766C83.4922 77.1849 83.125 76.224 83.125 75.0938C83.125 73.9635 83.4922 73.0052 84.2266 72.2188C84.9661 71.4271 85.862 71.0312 86.9141 71.0312C87.5964 71.0312 88.1901 71.1823 88.6953 71.4844C89.2005 71.7865 89.599 72.2214 89.8906 72.7891V71.1953ZM87.2188 77.75C87.9896 77.75 88.6276 77.5 89.1328 77C89.638 76.5 89.8906 75.8646 89.8906 75.0938C89.8906 74.3229 89.638 73.6875 89.1328 73.1875C88.6276 72.6875 87.9896 72.4375 87.2188 72.4375C86.474 72.4375 85.8411 72.6953 85.3203 73.2109C84.8047 73.7266 84.5469 74.3542 84.5469 75.0938C84.5469 75.8333 84.8047 76.4609 85.3203 76.9766C85.8411 77.4922 86.474 77.75 87.2188 77.75ZM96.9531 71.0312C97.3021 71.0312 97.6224 71.0911 97.9141 71.2109L97.75 72.6484C97.4635 72.5182 97.1536 72.4531 96.8203 72.4531C96.3099 72.4531 95.862 72.651 95.4766 73.0469C95.0964 73.4427 94.9062 73.9609 94.9062 74.6016V79H93.4141V71.1953H94.9062V72.4062C95.0781 72.0052 95.3594 71.6771 95.75 71.4219C96.1458 71.1615 96.5469 71.0312 96.9531 71.0312ZM103.656 77.6406L103.734 78.9375C103.484 79.0417 103.203 79.0938 102.891 79.0938C102.047 79.0938 101.365 78.8385 100.844 78.3281C100.328 77.8125 100.07 77.099 100.07 76.1875V72.6016H98.5547V71.1953H100.07V69.0781H101.547V71.1953H103.656V72.6016H101.547V76.1172C101.547 76.612 101.69 77.0026 101.977 77.2891C102.263 77.5755 102.63 77.7188 103.078 77.7188C103.292 77.7188 103.484 77.6927 103.656 77.6406ZM115.281 71.1953H116.758V79H115.281V77.3984C114.99 77.9661 114.591 78.401 114.086 78.7031C113.581 79.0052 112.987 79.1562 112.305 79.1562C111.253 79.1562 110.357 78.763 109.617 77.9766C108.883 77.1849 108.516 76.224 108.516 75.0938C108.516 73.9635 108.883 73.0052 109.617 72.2188C110.357 71.4271 111.253 71.0312 112.305 71.0312C112.987 71.0312 113.581 71.1823 114.086 71.4844C114.591 71.7865 114.99 72.2214 115.281 72.7891V71.1953ZM112.609 77.75C113.38 77.75 114.018 77.5 114.523 77C115.029 76.5 115.281 75.8646 115.281 75.0938C115.281 74.3229 115.029 73.6875 114.523 73.1875C114.018 72.6875 113.38 72.4375 112.609 72.4375C111.865 72.4375 111.232 72.6953 110.711 73.2109C110.195 73.7266 109.938 74.3542 109.938 75.0938C109.938 75.8333 110.195 76.4609 110.711 76.9766C111.232 77.4922 111.865 77.75 112.609 77.75ZM125.992 77.0781C125.685 77.7135 125.214 78.2188 124.578 78.5938C123.948 78.9688 123.234 79.1562 122.438 79.1562C121.688 79.1562 121.003 78.9792 120.383 78.625C119.763 78.2708 119.276 77.7839 118.922 77.1641C118.568 76.5443 118.391 75.8594 118.391 75.1094C118.391 74.3542 118.568 73.6641 118.922 73.0391C119.276 72.4141 119.763 71.9245 120.383 71.5703C121.003 71.2109 121.688 71.0312 122.438 71.0312C123.188 71.0312 123.859 71.2057 124.453 71.5547C125.052 71.8984 125.49 72.3594 125.766 72.9375L124.5 73.625C124.339 73.2656 124.07 72.9792 123.695 72.7656C123.326 72.5469 122.906 72.4375 122.438 72.4375C121.698 72.4375 121.078 72.6953 120.578 73.2109C120.078 73.7214 119.828 74.3542 119.828 75.1094C119.828 75.8542 120.078 76.4818 120.578 76.9922C121.078 77.4974 121.698 77.75 122.438 77.75C122.943 77.75 123.396 77.638 123.797 77.4141C124.198 77.1901 124.497 76.8802 124.695 76.4844L125.992 77.0781ZM134.602 77.0781C134.294 77.7135 133.823 78.2188 133.188 78.5938C132.557 78.9688 131.844 79.1562 131.047 79.1562C130.297 79.1562 129.612 78.9792 128.992 78.625C128.372 78.2708 127.885 77.7839 127.531 77.1641C127.177 76.5443 127 75.8594 127 75.1094C127 74.3542 127.177 73.6641 127.531 73.0391C127.885 72.4141 128.372 71.9245 128.992 71.5703C129.612 71.2109 130.297 71.0312 131.047 71.0312C131.797 71.0312 132.469 71.2057 133.062 71.5547C133.661 71.8984 134.099 72.3594 134.375 72.9375L133.109 73.625C132.948 73.2656 132.68 72.9792 132.305 72.7656C131.935 72.5469 131.516 72.4375 131.047 72.4375C130.307 72.4375 129.688 72.6953 129.188 73.2109C128.688 73.7214 128.438 74.3542 128.438 75.1094C128.438 75.8542 128.688 76.4818 129.188 76.9922C129.688 77.4974 130.307 77.75 131.047 77.75C131.552 77.75 132.005 77.638 132.406 77.4141C132.807 77.1901 133.107 76.8802 133.305 76.4844L134.602 77.0781ZM143.32 74.7578C143.32 74.9036 143.31 75.1068 143.289 75.3672H137.047C137.115 76.1172 137.385 76.7161 137.859 77.1641C138.339 77.6068 138.938 77.8281 139.656 77.8281C140.151 77.8281 140.604 77.724 141.016 77.5156C141.427 77.3073 141.732 77.0286 141.93 76.6797L143.109 77.4453C142.812 77.9766 142.354 78.3958 141.734 78.7031C141.115 79.0052 140.406 79.1562 139.609 79.1562C139.062 79.1562 138.542 79.0521 138.047 78.8438C137.552 78.6354 137.125 78.3516 136.766 77.9922C136.411 77.6276 136.13 77.1927 135.922 76.6875C135.714 76.1771 135.609 75.6354 135.609 75.0625C135.609 74.3229 135.784 73.6458 136.133 73.0312C136.482 72.4115 136.961 71.9245 137.57 71.5703C138.185 71.2109 138.859 71.0312 139.594 71.0312C140.641 71.0312 141.523 71.3906 142.242 72.1094C142.961 72.8281 143.32 73.7109 143.32 74.7578ZM137.109 74.25H141.797C141.75 73.6667 141.516 73.1901 141.094 72.8203C140.672 72.4505 140.151 72.2656 139.531 72.2656C138.917 72.2656 138.393 72.4453 137.961 72.8047C137.529 73.1641 137.245 73.6458 137.109 74.25ZM147.539 79.1562C146.93 79.1562 146.328 79.0547 145.734 78.8516C145.146 78.6484 144.664 78.3776 144.289 78.0391L144.898 76.9375C145.201 77.2292 145.599 77.4688 146.094 77.6562C146.589 77.8385 147.065 77.9297 147.523 77.9297C147.971 77.9297 148.336 77.8307 148.617 77.6328C148.904 77.4297 149.047 77.1771 149.047 76.875C149.047 76.6406 148.964 76.4453 148.797 76.2891C148.63 76.1328 148.414 76.013 148.148 75.9297C147.883 75.8411 147.589 75.763 147.266 75.6953C146.948 75.6224 146.628 75.5365 146.305 75.4375C145.987 75.3333 145.695 75.2083 145.43 75.0625C145.164 74.9115 144.948 74.6979 144.781 74.4219C144.615 74.1406 144.531 73.8047 144.531 73.4141C144.531 72.7057 144.805 72.1328 145.352 71.6953C145.898 71.2526 146.612 71.0312 147.492 71.0312C148.039 71.0312 148.565 71.1172 149.07 71.2891C149.581 71.4609 150 71.7057 150.328 72.0234L149.688 73.1406C149.417 72.875 149.055 72.6667 148.602 72.5156C148.148 72.3594 147.732 72.2812 147.352 72.2812C146.945 72.2812 146.62 72.375 146.375 72.5625C146.13 72.7448 146.008 72.987 146.008 73.2891C146.008 73.5026 146.091 73.6823 146.258 73.8281C146.424 73.9688 146.641 74.0833 146.906 74.1719C147.172 74.2552 147.464 74.3359 147.781 74.4141C148.104 74.487 148.427 74.5807 148.75 74.6953C149.073 74.8047 149.367 74.9401 149.633 75.1016C149.898 75.263 150.115 75.4896 150.281 75.7812C150.448 76.0729 150.531 76.4193 150.531 76.8203C150.531 77.4974 150.253 78.0573 149.695 78.5C149.138 78.9375 148.419 79.1562 147.539 79.1562ZM154.805 79.1562C154.195 79.1562 153.594 79.0547 153 78.8516C152.411 78.6484 151.93 78.3776 151.555 78.0391L152.164 76.9375C152.466 77.2292 152.865 77.4688 153.359 77.6562C153.854 77.8385 154.331 77.9297 154.789 77.9297C155.237 77.9297 155.602 77.8307 155.883 77.6328C156.169 77.4297 156.312 77.1771 156.312 76.875C156.312 76.6406 156.229 76.4453 156.062 76.2891C155.896 76.1328 155.68 76.013 155.414 75.9297C155.148 75.8411 154.854 75.763 154.531 75.6953C154.214 75.6224 153.893 75.5365 153.57 75.4375C153.253 75.3333 152.961 75.2083 152.695 75.0625C152.43 74.9115 152.214 74.6979 152.047 74.4219C151.88 74.1406 151.797 73.8047 151.797 73.4141C151.797 72.7057 152.07 72.1328 152.617 71.6953C153.164 71.2526 153.878 71.0312 154.758 71.0312C155.305 71.0312 155.831 71.1172 156.336 71.2891C156.846 71.4609 157.266 71.7057 157.594 72.0234L156.953 73.1406C156.682 72.875 156.32 72.6667 155.867 72.5156C155.414 72.3594 154.997 72.2812 154.617 72.2812C154.211 72.2812 153.885 72.375 153.641 72.5625C153.396 72.7448 153.273 72.987 153.273 73.2891C153.273 73.5026 153.357 73.6823 153.523 73.8281C153.69 73.9688 153.906 74.0833 154.172 74.1719C154.438 74.2552 154.729 74.3359 155.047 74.4141C155.37 74.487 155.693 74.5807 156.016 74.6953C156.339 74.8047 156.633 74.9401 156.898 75.1016C157.164 75.263 157.38 75.4896 157.547 75.7812C157.714 76.0729 157.797 76.4193 157.797 76.8203C157.797 77.4974 157.518 78.0573 156.961 78.5C156.404 78.9375 155.685 79.1562 154.805 79.1562ZM162.984 71.0312C163.729 71.0312 164.409 71.2109 165.023 71.5703C165.638 71.9245 166.122 72.4141 166.477 73.0391C166.836 73.6641 167.016 74.3542 167.016 75.1094C167.016 76.25 166.625 77.2109 165.844 77.9922C165.068 78.7682 164.115 79.1562 162.984 79.1562C162.24 79.1562 161.557 78.9792 160.938 78.625C160.323 78.2708 159.839 77.7839 159.484 77.1641C159.13 76.5443 158.953 75.8594 158.953 75.1094C158.953 73.9583 159.341 72.9922 160.117 72.2109C160.893 71.4245 161.849 71.0312 162.984 71.0312ZM162.984 72.4375C162.25 72.4375 161.633 72.6927 161.133 73.2031C160.638 73.7135 160.391 74.349 160.391 75.1094C160.391 75.8542 160.638 76.4818 161.133 76.9922C161.633 77.4974 162.25 77.75 162.984 77.75C163.714 77.75 164.328 77.4948 164.828 76.9844C165.328 76.474 165.578 75.849 165.578 75.1094C165.578 74.349 165.328 73.7135 164.828 73.2031C164.328 72.6927 163.714 72.4375 162.984 72.4375ZM172.188 71.0312C172.536 71.0312 172.857 71.0911 173.148 71.2109L172.984 72.6484C172.698 72.5182 172.388 72.4531 172.055 72.4531C171.544 72.4531 171.096 72.651 170.711 73.0469C170.331 73.4427 170.141 73.9609 170.141 74.6016V79H168.648V71.1953H170.141V72.4062C170.312 72.0052 170.594 71.6771 170.984 71.4219C171.38 71.1615 171.781 71.0312 172.188 71.0312ZM175.289 67.6875C175.555 67.6875 175.786 67.7865 175.984 67.9844C176.182 68.1823 176.281 68.4141 176.281 68.6797C176.281 68.9505 176.182 69.1849 175.984 69.3828C175.786 69.5755 175.555 69.6719 175.289 69.6719C175.013 69.6719 174.779 69.5755 174.586 69.3828C174.393 69.1901 174.297 68.9557 174.297 68.6797C174.297 68.4141 174.393 68.1823 174.586 67.9844C174.784 67.7865 175.018 67.6875 175.289 67.6875ZM174.539 71.1953H176.031V79H174.539V71.1953ZM185.367 74.7578C185.367 74.9036 185.357 75.1068 185.336 75.3672H179.094C179.161 76.1172 179.432 76.7161 179.906 77.1641C180.385 77.6068 180.984 77.8281 181.703 77.8281C182.198 77.8281 182.651 77.724 183.062 77.5156C183.474 77.3073 183.779 77.0286 183.977 76.6797L185.156 77.4453C184.859 77.9766 184.401 78.3958 183.781 78.7031C183.161 79.0052 182.453 79.1562 181.656 79.1562C181.109 79.1562 180.589 79.0521 180.094 78.8438C179.599 78.6354 179.172 78.3516 178.812 77.9922C178.458 77.6276 178.177 77.1927 177.969 76.6875C177.76 76.1771 177.656 75.6354 177.656 75.0625C177.656 74.3229 177.831 73.6458 178.18 73.0312C178.529 72.4115 179.008 71.9245 179.617 71.5703C180.232 71.2109 180.906 71.0312 181.641 71.0312C182.688 71.0312 183.57 71.3906 184.289 72.1094C185.008 72.8281 185.367 73.7109 185.367 74.7578ZM179.156 74.25H183.844C183.797 73.6667 183.562 73.1901 183.141 72.8203C182.719 72.4505 182.198 72.2656 181.578 72.2656C180.964 72.2656 180.44 72.4453 180.008 72.8047C179.576 73.1641 179.292 73.6458 179.156 74.25ZM189.586 79.1562C188.977 79.1562 188.375 79.0547 187.781 78.8516C187.193 78.6484 186.711 78.3776 186.336 78.0391L186.945 76.9375C187.247 77.2292 187.646 77.4688 188.141 77.6562C188.635 77.8385 189.112 77.9297 189.57 77.9297C190.018 77.9297 190.383 77.8307 190.664 77.6328C190.951 77.4297 191.094 77.1771 191.094 76.875C191.094 76.6406 191.01 76.4453 190.844 76.2891C190.677 76.1328 190.461 76.013 190.195 75.9297C189.93 75.8411 189.635 75.763 189.312 75.6953C188.995 75.6224 188.674 75.5365 188.352 75.4375C188.034 75.3333 187.742 75.2083 187.477 75.0625C187.211 74.9115 186.995 74.6979 186.828 74.4219C186.661 74.1406 186.578 73.8047 186.578 73.4141C186.578 72.7057 186.852 72.1328 187.398 71.6953C187.945 71.2526 188.659 71.0312 189.539 71.0312C190.086 71.0312 190.612 71.1172 191.117 71.2891C191.628 71.4609 192.047 71.7057 192.375 72.0234L191.734 73.1406C191.464 72.875 191.102 72.6667 190.648 72.5156C190.195 72.3594 189.779 72.2812 189.398 72.2812C188.992 72.2812 188.667 72.375 188.422 72.5625C188.177 72.7448 188.055 72.987 188.055 73.2891C188.055 73.5026 188.138 73.6823 188.305 73.8281C188.471 73.9688 188.688 74.0833 188.953 74.1719C189.219 74.2552 189.51 74.3359 189.828 74.4141C190.151 74.487 190.474 74.5807 190.797 74.6953C191.12 74.8047 191.414 74.9401 191.68 75.1016C191.945 75.263 192.161 75.4896 192.328 75.7812C192.495 76.0729 192.578 76.4193 192.578 76.8203C192.578 77.4974 192.299 78.0573 191.742 78.5C191.185 78.9375 190.466 79.1562 189.586 79.1562Z" fill="#90E600"/>
<defs>
<clipPath id="clip0_33_4890">
<rect width="253" height="60" fill="white"/>
</clipPath>
<clipPath id="clip1_33_4890">
<rect width="253.259" height="75.9265" fill="white"/>
</clipPath>
</defs>
</svg>
